<mxfile host="app.diagrams.net" modified="2021-04-26T03:22:27.282Z" agent="5.0 (Windows NT 10.0; Win64; x64) AppleWebKit/537.36 (KHTML, like Gecko) Chrome/90.0.4430.85 Safari/537.36" etag="-OSRVBVyU6OcEzrrTr_t" version="14.6.6" type="github">
  <diagram id="wBr9HBRF-HCjaGJJlsPl" name="Page-1">
    <mxGraphModel dx="782" dy="469" grid="1" gridSize="10" guides="1" tooltips="1" connect="1" arrows="1" fold="1" page="1" pageScale="1" pageWidth="827" pageHeight="1169" math="0" shadow="0">
      <root>
        <mxCell id="0" />
        <mxCell id="1" parent="0" />
        <UserObject label="https://www.pianshen.com/article/8815869008/" link="https://www.pianshen.com/article/8815869008/" id="dzYQF2L7bi3ynJDp81Xv-1">
          <mxCell style="text;whiteSpace=wrap;html=1;" vertex="1" parent="1">
            <mxGeometry x="190" y="120" width="270" height="30" as="geometry" />
          </mxCell>
        </UserObject>
      </root>
    </mxGraphModel>
  </diagram>
</mxfile>
